<svg class="svg-icon" style="width: 1em;height: 1em;vertical-align: middle;fill: currentColor;overflow: hidden;" viewBox="0 0 1024 1024" version="1.1" xmlns="http://www.w3.org/2000/svg"><path d="M453.563733 630.203733m185.4464 0l0 0q185.4464 0 185.4464 185.4464l0 0q0 185.4464-185.4464 185.4464l0 0q-185.4464 0-185.4464-185.4464l0 0q0-185.4464 185.4464-185.4464Z" fill="#FF9A32" opacity=".409" /><path d="M493.329067 536.9856a263.2704 263.2704 0 1 0 0-526.506667 263.2704 263.2704 0 0 0 0 526.506667z m0-62.907733a200.362667 200.362667 0 1 1 0-400.6912 200.362667 200.362667 0 0 1 0 400.725333z" fill="#333333" /><path d="M107.52 986.965333v-64.170666c0-213.060267 172.714667-385.809067 385.809067-385.809067 213.060267 0 385.774933 172.714667 385.774933 385.774933v64.2048h62.907733v-64.170666c0-247.808-200.874667-448.7168-448.682666-448.7168S44.612267 674.986667 44.612267 922.760533v64.2048H107.52z" fill="#333333" /><path d="M667.136 823.944533l-109.294933-92.945066a31.470933 31.470933 0 1 0-40.7552 47.957333l152.8832 129.979733 306.653866-298.120533a31.470933 31.470933 0 0 0-43.861333-45.090133l-265.6256 258.218666z" fill="#FF960B" /></svg>